{"title":"18+ Kickboxer Vengeance 2016 UNCENSORED Movies HDRip XviD ESubs","uid":15734215,"size":739480672,"categoryP":"video","categoryS":"movies","magnet":"?xt=urn:btih:ff54447362bbf1695d7857e48b8eb64f557eba75&amp;dn=18%2B+Kickboxer+Vengeance+2016+UNCENSORED+Movies+HDRip+XviD+ESubs+&amp;tr=udp%3A%2F%2Ftracker.leechers-paradise.org%3A6969&amp;tr=udp%3A%2F%2Fzer0day.ch%3A1337&amp;tr=udp%3A%2F%2Fopen.demonii.com%3A1337&amp;tr=udp%3A%2F%2Ftracker.coppersurfer.tk%3A6969&amp;tr=udp%3A%2F%2Fexodus.desync.com%3A6969","seeders":1,"leechers":3,"uploader":"basicssom","files":3,"time":1472820822,"description":"----------------------------------------------------------------\r\n18+ Kickboxer Vengeance 2016 UNCENSORED Movies HDRip XviD ESubs AAC New Source with Sample ☻rDX☻\r\n\r\nSCREEN SHOTS &amp; POSTER:\r\n  \nhttp://postimage.co.nr/2016/9/online/index.htm  \nhttp://postimage.co.nr/2016/9/online/1.html  \nhttp://postimage.co.nr/2016/9/online/2.html  \nhttp://postimage.co.nr/2016/9/online/3.html  \nhttp://postimage.co.nr/2016/9/online/4.html  \nhttp://postimage.co.nr/2016/9/online/5.html  \nhttp://postimage.co.nr/2016/9/online/6.html  \nhttp://postimage.co.nr/2016/9/online/7.html  \nhttp://postimage.co.nr/2016/9/online/8.html  \nhttp://postimage.co.nr/2016/9/online/9.html  \nhttp://postimage.co.nr/2016/9/online/10.html\r\n\r\nFormat                                   : Matroska\r\nFormat version                           : Version 4 / Version 2\r\nFile size                                : 694 MiB\r\nDuration                                 : 1 h 30 min\r\nOverall bit rate                         : 1 073 kb/s\r\nMovie name                               : Kickboxer Vengeance 2016 English Movies HDRip XviD ESubs AAC New Source ☻rDX☻\r\n\r\nVideo\r\nID                                       : 1\r\nFormat                                   : MPEG-4 Visual\r\nFormat profile                           : Advanced   \r\nFormat settings, BVOP                    : 2\r\nFormat settings, QPel                    : No\r\nFormat settings, GMC                     : No warppoints\r\nFormat settings, Matrix                  : Default (H.263)\r\nMuxing mode                              : Packed bitstream\r\nCodec ID                                 : V_MS/VFW/FOURCC / XVID\r\nCodec ID/Hint                            : XviD\r\nDuration                                 : 1 h 30 min\r\nBit rate                                 : 924 kb/s\r\nWidth                                    : 640 pixels\r\nHeight                                   : 272 pixels\r\nDisplay aspect ratio                     : 2.35:1\r\nFrame rate mode                          : Constant\r\nFrame rate                               : 23.976 (24000/1001) FPS\r\nColor space                              : YUV\r\nChroma subsampling                       : 4:2:0\r\nBit depth                                : 8 bits\r\nScan type                                : Progressive\r\nCompression mode                         : Lossy\r\nBits/(Pixel*Frame)                       : 0.221\r\nStream size                              : 597 MiB (86%)\r\nTitle                                    : ☻rDX☻\r\nWriting library                          : XviD 64\r\nDefault                                  : Yes\r\nForced                                   : No\r\n\r\nAudio\r\nID                                       : 2\r\nFormat                                   : MPEG Audio\r\nFormat version                           : Version 1\r\nFormat profile                           : Layer 3\r\nMode                                     : Joint stereo\r\nCodec ID                                 : A_MPEG/L3\r\nCodec ID/Hint                            : MP3\r\nDuration                                 : 1 h 30 min\r\nBit rate mode                            : Constant\r\nBit rate                                 : 128 kb/s\r\nChannel(s)                               : 2 channels\r\nSampling rate                            : 48.0 kHz\r\nCompression mode                         : Lossy\r\nStream size                              : 82.8 MiB (12%)\r\nTitle                                    : ☻rDX☻\r\nWriting library                          : LAME3.99r\r\nEncoding settings                        : -m j -V 4 -q 3 -lowpass 17 -b 128\r\nDefault                                  : Yes\r\nForced                                   : No\r\n\r\nIMDB \nhttp://www.imdb.com/title/tt3082898/","torrent":{"xt":"urn:btih:ff54447362bbf1695d7857e48b8eb64f557eba75","amp;dn":"18%2B+Kickboxer+Vengeance+2016+UNCENSORED+Movies+HDRip+XviD+ESubs+","amp;tr":["udp%3A%2F%2Ftracker.leechers-paradise.org%3A6969","udp%3A%2F%2Fzer0day.ch%3A1337","udp%3A%2F%2Fopen.demonii.com%3A1337","udp%3A%2F%2Ftracker.coppersurfer.tk%3A6969","udp%3A%2F%2Fexodus.desync.com%3A6969"],"infoHash":"ff54447362bbf1695d7857e48b8eb64f557eba75","infoHashBuffer":{"type":"Buffer","data":[255,84,68,115,98,187,241,105,93,120,87,228,139,142,182,79,85,126,186,117]},"announce":[],"urlList":[]}}